
<svg width="96px" height="98px" viewBox="0 0 96 98" x="-49px" y="-49px" version="1.1" xmlns="http://www.w3.org/2000/svg" xmlns:xlink="http://www.w3.org/1999/xlink">
    <!-- Generator: Sketch 50.2 (55047) - http://www.bohemiancoding.com/sketch -->
    <desc>Created with Sketch.</desc>
    <defs></defs>
    <g id="Page-1" stroke="none" stroke-width="1" fill="#000" fill-rule="evenodd">
        <g id="clickup" transform="translate(-2.000000, -2.000000)" fill="#000000">
            <path d="M86.9930233,54.0333333 L86.6581395,54.1133333 C86.6581395,54.1133333 95.0604651,58.5977778 94.3232558,70.7311111 C87.3348837,87.8555556 69.8860465,100 49.4395349,100 C28.9976744,100 11.5465116,87.86 4.55581395,70.7422222 C3.95348837,60.8888889 9.3744186,56.0755556 11.4395349,54.6133333 L12.2209302,54.2066667 C12.2744186,73.7155556 28.9488372,89.5711111 49.4395349,89.5711111 C69.9627907,89.5711111 86.6581395,73.6644444 86.6581395,54.1133333 C86.6581395,54.0244444 86.6534884,53.9377778 86.6511628,53.8488889 L86.9930233,54.0333333 Z M97.6767442,48.0755556 L49.2976744,16.9888889 L2.31395349,48.4044444 C2.16511628,46.2333333 2.51395349,37.08 16.472093,25.3177778 L44.2162791,3.86666667 C45.2093023,3.16 49.0976744,0.806666667 53.8139535,3.37333333 L87.727907,29.1933333 C97.0372093,38.56 97.7418605,45.7288889 97.6767442,48.0755556 Z" id="Shape"></path>
        </g>
    </g>
</svg>