<?xml version="1.0" encoding="utf-8"?>
<!-- Generator: Adobe Illustrator 19.2.1, SVG Export Plug-In . SVG Version: 6.00 Build 0)  -->
<svg version="1.1" id="Layer_1" xmlns="http://www.w3.org/2000/svg" xmlns:xlink="http://www.w3.org/1999/xlink" x="-50px" y="-50px"
	width="100px" height="100px" viewBox="0 0 100 100" style="enable-background:new 0 0 100 100;" xml:space="preserve">
<title>Coachseek-NoWords</title>
<path d="M81.9,23.1c0.5-0.6,0.7-1.3,0.5-2c-0.1-0.7-0.5-1.4-1.1-1.8l-2-1.5c-1.2-0.9-3-0.7-3.9,0.5l-2.3,3c2.3,1.4,4.4,3.1,6.4,4.9
	L81.9,23.1z"/>
<path d="M20.5,26.1c2-1.8,4.1-3.5,6.4-4.9l-2.3-3c-0.9-1.2-2.7-1.4-3.9-0.5l-2,1.5c-0.6,0.4-1,1.1-1.1,1.8c-0.1,0.7,0.1,1.5,0.5,2
	L20.5,26.1z"/>
<ellipse cx="50" cy="57.1" rx="12.3" ry="12.2"/>
<path d="M79.7,59.9L79.7,59.9l11.2,5.4c0.6-2.7,0.8-5.4,0.8-8.2c0-21-15.9-38.3-36.5-40.8l-1.2,4.2V9.9h2.7c0.5,0,0.7-0.9,0.7-1.4
	v-4c0.1-0.3-0.1-0.7-0.5-0.7c-0.1,0-0.2,0-0.2,0H43.7c-0.5-0.1-0.9,0.2-1,0.6c0,0,0,0.1,0,0.1v4.1c0,0.5,0.5,1.4,1,1.4h2.4v6.2
	C25,18.1,8.3,35.7,8.3,57.1C8.3,79.7,27,98.1,50,98.1c12.3,0,24.1-5.4,32-14.8l-14.2-6.8c-4.9,4.3-11.2,6.7-17.8,6.7
	c-14.7,0-26.6-11.7-26.6-26.2S35.3,30.8,50,30.8c14.5,0,26.3,11.5,26.6,25.7l-5.8-0.9L79.7,59.9z"/>
</svg>
