<?xml version="1.0" encoding="utf-8"?>
<!-- Generator: Adobe Illustrator 19.2.1, SVG Export Plug-In . SVG Version: 6.00 Build 0)  -->
<svg version="1.1" id="Your_Icon" xmlns="http://www.w3.org/2000/svg" xmlns:xlink="http://www.w3.org/1999/xlink" x="-50px" y="-50px"
	width="100px" height="100px" viewBox="0 0 100 100" style="enable-background:new 0 0 100 100;" xml:space="preserve">
<polygon points="48.5,33.9 48.6,33.9 48.6,34 48.7,34.1 48.6,34.1 48.6,34.2 48.6,34.3 48.7,34.4 48.7,34.3 48.8,34.3 48.9,34.3
	49,34.4 48.9,34.5 48.9,34.6 48.9,34.7 48.9,34.8 48.9,34.9 49,34.9 49.2,34.9 49.3,34.9 49.4,34.9 49.6,34.8 49.6,34.9 49.6,35
	49.5,35.1 49.6,35.2 49.7,35.1 49.8,35.2 49.8,35.2 49.8,35.3 49.8,35.5 49.8,35.5 49.7,35.6 49.6,35.7 49.4,35.6 49.3,35.6
	49.2,35.6 49.3,35.8 49.3,35.9 49.3,36 49.2,36.1 49.3,36.1 49.4,36.1 49.5,36.2 49.4,36.3 49.4,36.3 49.3,36.4 49.1,36.5
	49.1,36.6 49.1,36.7 49.2,36.8 49.3,36.8 49.3,36.7 49.4,36.7 49.5,36.8 49.6,36.8 49.7,36.7 49.8,36.7 49.9,36.7 50,36.6
	50.1,36.7 50,36.8 49.9,36.8 49.8,36.9 49.7,36.9 49.6,36.9 49.5,36.9 49.4,37 49.3,37.1 49.3,37.2 49.3,37.3 49.2,37.4 49.2,37.5
	49.1,37.5 49.1,37.7 49.1,37.7 49.3,37.7 49.3,37.6 49.4,37.5 49.4,37.4 49.5,37.4 49.6,37.4 49.7,37.4 49.8,37.4 49.9,37.4
	49.9,37.2 50,37.2 50.1,37.2 50.2,37.2 50.3,37.2 50.4,37.1 50.5,37 50.6,37 50.6,37 50.7,37 50.8,37 50.9,37 51.1,37 51.2,37
	51.3,37 51.3,36.9 51.4,36.9 51.5,36.8 51.6,36.8 51.6,36.7 51.5,36.6 51.4,36.6 51.3,36.6 51.3,36.5 51.4,36.4 51.4,36.3
	51.4,36.3 51.5,36.3 51.6,36.3 51.7,36.2 51.7,36.1 51.7,36.1 51.7,36 51.7,35.8 51.6,35.7 51.5,35.7 51.3,35.7 51.3,35.8
	51.2,35.9 51.1,35.8 51.1,35.8 51.1,35.6 51,35.5 50.9,35.4 51.1,35.4 51,35.3 50.9,35.2 50.8,35.2 50.7,35.2 50.7,35.1 50.7,35
	50.4,34.8 50.3,34.8 50.2,34.8 50.2,34.7 50.2,34.6 50.1,34.5 50,34.3 49.9,34.3 49.9,34.3 49.8,34.2 49.7,34.2 49.7,34.2
	49.7,34.1 49.7,34 49.7,33.8 49.7,33.8 49.7,33.7 49.8,33.6 49.9,33.6 49.8,33.5 49.8,33.4 49.8,33.3 49.8,33.3 49.8,33.3
	49.8,33.1 49.7,33.1 49.6,33.1 49.5,33.2 49.4,33.2 49.3,33.2 49.1,33.3 49.1,33.2 49,33.1 49,33 49.1,33 49.1,32.9 49.2,32.8
	49.2,32.6 49.2,32.5 49.1,32.5 49,32.5 48.9,32.6 48.8,32.7 48.8,32.6 48.7,32.6 48.7,32.7 48.7,32.8 48.6,32.9 48.6,33 48.6,33.1
	48.6,33.2 48.5,33.2 48.5,33.3 48.5,33.4 48.5,33.5 48.5,33.5 48.5,33.6 48.5,33.6 48.5,33.7 "/>
<polygon points="48.7,35.3 48.7,35.1 48.6,35 48.6,35 48.5,34.9 48.5,34.9 48.4,34.9 48.4,35 48.2,35.1 48.2,35 48.3,35 48.2,34.9
	48.2,34.8 48.1,34.9 48,34.9 47.9,34.9 47.8,35 47.8,35.1 47.8,35.1 47.8,35.2 47.8,35.3 47.8,35.3 47.7,35.4 47.7,35.5 47.5,35.5
	47.5,35.5 47.4,35.5 47.4,35.6 47.4,35.7 47.4,35.8 47.3,35.9 47.3,36 47.3,36.1 47.3,36.2 47.4,36.1 47.5,36.1 47.6,36.1 47.6,36
	47.7,36.1 47.7,36.1 47.6,36.2 47.7,36.2 47.6,36.3 47.6,36.4 47.5,36.6 47.5,36.8 47.3,36.9 47.4,36.9 47.4,37 47.5,37.1
	47.5,37.1 47.6,37.1 47.6,37.1 47.7,37 47.8,37.1 47.9,37.1 48,37.1 48.1,36.9 48.2,36.8 48.2,36.8 48.3,36.8 48.4,36.7 48.4,36.6
	48.4,36.6 48.5,36.5 48.5,36.4 48.6,36.3 48.6,36.2 48.5,36.1 48.5,36 48.5,35.9 48.5,35.8 48.5,35.7 48.5,35.6 48.6,35.5
	48.7,35.5 48.8,35.4 48.7,35.3 "/>
<polygon points="24.2,55.6 24.1,55.5 23.8,55.5 23.5,55.5 23.3,55.5 22.9,55.6 22.7,55.8 22.7,55.8 22.6,56 22.5,56.1 22.6,56.2
	22.7,56.1 22.8,56.1 22.9,55.9 23,55.8 23.1,55.7 23.3,55.7 23.4,55.8 23.5,55.9 23.6,55.8 23.7,55.8 23.8,55.9 23.9,55.8 24.1,56
	24.2,56.1 24.5,56.1 24.6,56.1 24.7,56.2 24.8,56.4 24.9,56.4 25.1,56.4 25.2,56.5 25.1,56.7 25.1,56.8 25.2,56.8 25.5,56.8
	25.8,56.6 25.9,56.6 26.1,56.6 26.3,56.6 26.2,56.3 25.9,56.3 25.8,56.3 25.7,56 25.5,56.1 25.3,56 25.2,55.9 25,55.9 24.4,55.8 "/>
<polygon points="26.6,57.2 26.4,57.2 26.4,57.3 26.5,57.4 26.7,57.4 26.9,57.3 26.9,57.3 27,57.3 27.2,57.3 27.5,57.3 27.6,57.4
	27.6,57.3 27.7,57.2 27.7,57.1 27.7,57.1 27.9,57.1 28,57.1 28.2,57 28.3,57 28.5,56.9 28.6,56.9 28.5,56.7 28.1,56.7 27.8,56.5
	27.6,56.5 27.2,56.5 27,56.6 27,57 27.1,57 27.1,57.2 27,57.2 26.9,57.2 26.9,57.2 26.7,57.2 "/>
<polygon points="25.5,57.4 25,57.4 24.9,57.6 25.1,57.6 25.2,57.7 25.3,57.7 25.4,57.8 25.5,57.7 25.6,57.6 25.7,57.5 25.6,57.4 "/>
<path class="map" d="M49.8,13.2c-20.4,0-37,16.6-37,37c0,20.4,16.6,36.9,37,36.9c20.4,0,36.9-16.6,36.9-36.9C86.7,29.8,70.1,13.2,49.8,13.2z
	 M71.2,39.7L71.2,39.7l0,0.1l0.1,0l0-0.1l0.1,0l0,0l0.1,0l0.1,0v0l0,0.1l0,0.2l0.1,0.1l0.1,0.1l0,0.1l0,0l0,0l0,0.1l0,0.1l0,0l0,0
	l0,0.1l0.1,0.2l0,0.1l0,0.1l0,0.1v0l0,0.1l0,0.1l0,0.1l0,0.1l-0.1,0l0-0.1l-0.1,0l-0.1,0l-0.1,0l-0.1,0l-0.1,0.1l-0.1,0.1l-0.2,0
	l-0.2-0.1l0-0.1l-0.1,0l-0.1,0l-0.1,0l-0.1,0l-0.1,0l-0.1,0l-0.1,0l-0.1,0l0,0l0,0l0-0.1l0,0L70.1,41l0-0.1l-0.1-0.1l0-0.1l0-0.1
	l0.1-0.1l0-0.1l0-0.2l0-0.1l0-0.1l0.1-0.1l0-0.1l0-0.1l0-0.1l0.1,0l0.1,0l0,0l-0.1,0l-0.1,0L70,39.6l-0.1-0.1l0,0l-0.1-0.1l0,0
	l-0.1,0l-0.1-0.1l-0.1,0L69.5,39l0-0.1l-0.1-0.1l-0.1-0.1l-0.1-0.4l-0.1-0.1l0-0.1l0-0.1L69,38l-0.1,0l-0.1,0l-0.1,0l0-0.1v-0.1
	l0-0.2l0-0.3l0-0.1l0-0.2l0.1-0.1l0.1-0.1l0.1,0l0.1,0.1l0.1-0.2l-0.1,0l0-0.1l0.1,0l0.1,0l0.1,0l0.1-0.1l0-0.1l0,0l0.2,0l0.1,0
	l0.1-0.2l0-0.1l0-0.1l0,0l0.1,0l0.1,0l0,0.1l0.1,0.1l0,0h0.1h0l0.1,0l0.1,0.1l0.1,0.1l0.2,0.1l0.2,0l0,0.1l0,0.1l0.1,0.1l0.1,0.1
	l0.1,0.1l0,0.1l0,0.1l-0.1,0.1l-0.1,0.1l-0.1,0l-0.1,0l-0.1,0l-0.1,0l-0.1,0l0,0h-0.1h0l0,0.1l0,0.1l-0.2,0c0,0,0,0,0,0c0,0,0,0,0,0
	l0,0.2l0.1,0.1l0,0.1l-0.2,0l-0.2,0l0.1,0.1l0.1,0.1l0.1,0.1l0,0.1l0,0.1l0.1,0.1l0.1,0l0.1,0h0.1l0.1,0l0.1,0l0.1,0.5h0.1l0.1,0
	l0,0l0-0.1l0,0l0,0l0.1,0l0.1,0l0.1,0.1c0,0,0,0.1,0,0.1c0,0,0.1,0.1,0.1,0.1l0.1,0l0.1,0l0,0.1l0,0l0,0.1l0,0.1l0,0l-0.1,0l-0.1,0
	l-0.1,0l-0.1-0.1l0,0l0,0l0,0l0,0l-0.1,0.1L71.2,39.7L71.2,39.7z M38.2,16.8L38.2,16.8c0.2-0.1,0.3-0.1,0.5-0.2l-0.1,0.1l0,0
	l-0.1,0.1l-0.1,0L38.2,16.8L38.2,16.8z M49.8,85.5c-16.6,0-30.4-11.4-34.3-26.7l0.1,0l0.2,0.2l0.3,0.2l0.3,0.1l0.2,0.1l0.2,0.1
	l0.3,0.2l0.2,0l0.2,0l0.2,0.1l0.4,0l0.3,0.1l0.3-0.2l0.2-0.1l0.7,0l0.1,0l0,0l0.2,0.1l0.2,0.1l0.1,0.3l0.3,0.1l0.3,0.1l0.1,0
	l0.4,0.2l0.2-0.1l0.2,0l0.4,0.1l0,0.3l0.2,0l0.2,0.2l0.1-0.1l0.1,0l0.1,0.1l0,0l0.2,0.2l0,0.1l-0.1,0.1l0,0.2l0.2,0.3l0.2,0l0.2,0.1
	l0.2,0.1l0.1,0.3l0.2,0.1l0.1,0l0.1,0l0,0l0.2-0.1l0.3,0.2l0.1,0l0.4-0.1l0-0.1L25,62.2l0.1-0.2l0.2,0l0.2,0.1l0.1,0l0.1,0.2l0,0.2
	l0.1,0.2l0.2,0l0.1,0.2l0,0.2l0,0.2l0,0.3l-0.1,0.2l0,0.3l0.2,0.1l-0.2,0.2L26,64.7l-0.1,0.2l0,0.3l-0.2,0.2l-0.1,0.2l-0.1,0.1
	l0.2,0.2l0,0.1l-0.1,0.2v0l0,0.2l-0.1,0.2l0,0.3l0,0.2l0.1,0.2l0.1,0l0.1,0.2l-0.1,0.2l-0.2,0.2l-0.1,0.3l0.1,0.2l0.1,0.2l0.2,0.4
	l0.2,0.2l0.2,0.1l0.2,0.2l0.1,0.2l0.2,0.2l0.3,0.4l0,0.1l0.1,0.1l0,0.1l0.2,0.4l0.5,0.9l0.3,0.7l0.1,0.3l0.3,0.1l0.2,0.2l0.1,0.1
	l0.1,0l0.1,0l0.3,0.1l0.2,0.2l0.3,0.1l0.2,0.1l0.2,0.1l0,0.1l0.1,0.4l0.2,0.3l0,0.3l0,0.4l0,0.5l0,0.2l-0.1,0.3l0,0.2l0.2,0.5l0,0.2
	l-0.1,0.2l0,0l0,0.1l0,0.1l0,0.2l0.1,0.2l0,0.6l-0.1,0.3l0,0.1l0,0.1v0l0.2,0.2l0,0.2l-0.1,0.3l0,0.1l0,0c0.2,0.1,0.4,0.2,0.5,0.3
	c1.6,0.9,3.2,1.8,4.9,2.5l0,0l0.1-0.1l0,0l0.2-0.6l-0.1-0.2l-0.2-0.1l0-0.2v0l-0.1-0.2l0,0L36,81l-0.2-0.3l0-0.3l0.1,0.1l0.1,0.3
	l0.2,0.1l0.1,0.1l0.2,0l0.2-0.1l0.5-0.1l0.1-0.2l0.1-0.1l0.2-0.4l0.1-0.1l0-0.1l0-0.3l0-0.3l0.2-0.3l0.1-0.3l0-0.1l0.2,0.4l0,0.1
	l0,0l0-0.1l0-0.1l0-0.3l0.1-0.4l0.2-0.2l0.1-0.2l0-0.2l0-0.2l0-0.3l-0.1-0.4l0.1-0.2L39,76l0.1-0.1l0.2-0.3l0.3-0.3l0.1-0.1l0,0
	l0.3-0.1l0.1-0.2l0.2-0.1l0.4-0.3l0.3,0l0.1-0.2l0-0.3l0.1-0.5l0.2-0.4l0.1-0.5l0-0.2l0-0.2l0-0.5l-0.1-0.3l0-0.4l0-0.1l0,0
	l-0.1-0.4l0.1-0.7l0.2,0l0,0l0-0.1l0.1-0.2l0-0.3l0-0.3l0.2-0.3l0.3-0.3l0-0.3l0,0l0-0.1l0.1-0.4l-0.1-0.7l-0.2-0.2L42.2,66
	l-0.3-0.1L41.6,66l-0.3-0.3l-0.4-0.4l-0.4-0.1l0,0l-0.1,0l-0.2,0l-0.4-0.1l-0.4-0.1l-0.1,0.3l-0.2-0.2l-0.4-0.4l-0.3-0.1l-0.4-0.1
	l-0.5,0l-0.2,0.3l-0.1-0.4L37,64.4l-0.3,0.1l-0.2,0.4l0,0.2l-0.2,0l-0.2,0.1l0-0.3l0.1-0.4l0.4-0.1l0-0.2l0-0.2l-0.2-0.2l0.1-0.3
	l-0.2-0.1l-0.1-0.4l-0.3-0.5l-0.3-0.3l-0.3-0.2l-0.5-0.2l-0.2-0.1L33.7,62l-0.1,0h0l-0.2-0.2l-0.2-0.1l-0.2,0.1l0-0.2l0-0.3
	l-0.1-0.1l-0.5-0.2c0,0-0.3,0.1-0.3,0c-0.1-0.1,0-0.2,0-0.2l0-0.2l-0.2-0.1l-0.2-0.1l-0.2-0.1v-0.1l0-0.1v-0.1l-0.2,0.1l-0.3,0.1
	l-0.2,0.1l-0.1,0.2l-0.3,0L30,60.5l-0.3,0l-0.2,0l-0.3,0.2l-0.1-0.2l-0.2-0.1l-0.3-0.1l-0.2-0.1l0,0.2l-0.2,0.2L28,60.8l0,0.2l0,0.1
	l0,0l0.1,0.2l0,0.2l0,0.1l-0.1,0l-0.1,0l-0.2-0.2l0-0.3v-0.3l-0.1-0.2l0-0.1l0.1-0.2l0.1-0.1l-0.1,0l-0.1,0l0,0l-0.1,0.1l-0.1,0.1
	l-0.2,0.2l-0.2,0.1L26.7,61l-0.1,0.2l0,0.3l0.1,0.2l-0.3,0.6l-0.6-0.5l-0.3-0.3l-0.3,0.1l-0.2,0.2L24.6,62l-0.4,0L24,61.8l-0.2-0.2
	l-0.2-0.3l-0.1-0.4l0,0l0-0.4l0-0.7v-0.1v-0.1l-0.1-0.2l-0.3-0.1l-0.1,0h0l-0.6,0l-0.3,0.1l-0.2,0.1l-0.2,0.1l-0.1,0l-0.3,0l0-0.1
	l0-0.1l0.1-0.6l0-0.4l0.2-0.3l-0.1-1.3l-0.3,0.1l-0.4,0.2l-0.2,0.2l-0.1,0.3l0,0.3L20.3,58l-0.2,0.2l-0.2,0.1l-0.2,0.1l-0.1,0.2
	l-0.2,0.1l-0.1,0l-0.2,0l-0.1,0l0,0l-0.1-0.1l0,0l-0.4-0.2l-0.8-1.1l-0.1-0.4l-0.1-0.4l-0.2-0.6l0.1-0.4l0.1-0.2l0-0.3l-0.2-0.4
	l0-0.3l0.2-0.4l0.4-0.2l0-0.3l0.2-0.3l0.1,0l0.1-0.1l0.1-0.1l0.3-0.1l0.3,0l0.4,0l0.1,0.2l0.2-0.2l0.3,0l0.1-0.1l-0.1-0.2v-0.3
	l0.3-0.1l0.4-0.1l0.2-0.1l0.3,0.2l0.2,0l0,0l0.1,0l0.1,0l0.2-0.1l0.2,0.1l0.2,0.2l0.1,0.2l0.2,0.5l0,0.2l0.2,0.1l0,0.2l0.2,0.2
	l0.2,0.4l0.2,0l0.1-0.1l0.1-0.2l-0.1-0.4l-0.1-0.4l-0.2-0.4l0-0.3l-0.2-0.2l0-0.3l0-0.4l0-0.4l0.2-0.4l0.1-0.2l0.5-0.5l0.2-0.3
	l0.2-0.2l0-0.1l0.3-0.3l-0.1-0.3l-0.1-0.2l-0.3-0.2l0-0.3L24,48.1l0-0.2l0-0.2l0-0.1l0-0.1l0.1-0.2h0.3l-0.1,0.2l0,0l0,0.1l0,0
	l0,0.3l0.1,0.1l0.2,0.1l0.1-0.3l0.1-0.2l0-0.1l0,0l-0.1-0.2l0.1-0.1l0.2-0.1l0.1-0.2l0-0.2l0-0.1l0,0l0.3-0.3l-0.3,0l0.2-0.3
	l0.2-0.1l0.1,0l0.1-0.1l0.2-0.1l0.2,0l0-0.2L26,45.4v-0.3l0-0.3l0.2-0.2l0.2-0.1l0.2-0.2l0.2,0.1l0.2-0.1l0.1-0.2l0-0.3l0.3-0.1
	l0.2-0.1l0.1-0.1l0.1-0.1l0.2-0.2l0.1,0.2l0.2,0l0.1,0.1l-0.5,0.2l-0.2,0.2l-0.2,0.2l0.1,0.2l0.1,0.1l0.2,0.1l0.2,0l0.2-0.2l0.1-0.2
	l0.2-0.3l0.2-0.1l0.2-0.1l0.2-0.4l-0.3,0l-0.3,0.1l-0.2-0.2L28.1,43l-0.2-0.3l-0.2-0.3l-0.4-0.1l0-0.2l0.2,0l0.2-0.3l0-0.1l-0.1-0.2
	l-0.2-0.2l-0.3,0l-0.5,0.2l-0.3,0.2l-0.4,0.3l-0.2,0.4l0-0.2l0.1-0.4l0.2-0.2l0.2-0.2l0.1-0.2l0.3-0.4l0.8-0.2l0.4-0.1l0.2-0.1
	l0.4,0.2l0.4-0.2l0.2-0.2l0.4-0.4l0-0.2l0.3-0.1l0.4-0.1l0.3-0.3l0-0.2l-0.1-0.3l-0.3-0.1L30,38.4l-0.4,0.2L29,39l0.2-0.2l0.2-0.4
	l0.2-0.1l0.1-0.1L29.7,38l-0.1-0.2l-0.2,0l-0.6,0.1l-0.2-0.3l-0.3-0.2l-0.2-0.2L28,37.1l0.3-0.2l0-0.2l-0.3,0l0-0.2l-0.2-0.2
	l-0.1-0.1l-0.2,0.1l0.1-0.2l0-0.2l-0.1-0.2L27,35.5l-0.2-0.3l0-0.3l0-0.1l-0.1,0h0l0,0.2l0,0l0,0l-0.2,0.3l-0.2,0.1l-0.1,0.1L26,36
	l-0.2,0.1l-0.2,0.1l-0.2-0.2l-0.1-0.1l-0.3,0l-0.1-0.4l0-0.2l0-0.1v0l0-0.3l0-0.2l-0.2,0l-0.1-0.1l-0.1-0.2l-0.2,0.2l-0.2,0
	l-0.2-0.3l-0.3-0.1l0,0l-0.1,0l-0.3-0.2l-0.3,0.3l-0.4-0.1l-0.4,0l-0.4,0.1l0.1,0.4l0.1,0.3l0,0.3l0.2,0l0.1,0.4L22,36l-0.3,0.2
	l-0.1,0.3l0,0l0.1,0.1l0.3,0.3l0.3,0.4l0.2,0.2l0.1,0.1l0.1,0.1l0,0.5l-0.1,0.4l-0.1,0.1l-0.1,0.1l-0.1,0.1l-0.3,0.3l0.1,0.3
	l0.1,0.1l0.1,0.2l0,0l0,0.3l0,0.6L22,41l-0.1,0l-0.1,0l-0.2,0l-0.3-0.3l-0.1-0.3l-0.2-0.2l-0.1-0.3l-0.1-0.4l-0.1-0.4l-0.3-0.2
	l-0.8,0.1l-0.4-0.1l-0.1,0l-0.3-0.1l-0.3-0.3l-0.1,0l-0.1-0.1l-0.2-0.1l-0.4-0.1l-0.4-0.1L17,38.3l-0.3-0.2l-0.2-0.2
	c1.1-3.1,2.7-5.9,4.5-8.5l0.1,0.1l0-0.1l0.1-0.1l0.1,0l0.2,0.1l0.1-0.1l0.1,0.2l0,0.2l0.2,0.1L22,30l0.1,0.1l0.1,0.1l0.1,0l0.1-0.1
	l0.1-0.1l0.2-0.1l0,0.2l0,0.2h0l0.2,0.1l0.1,0l0,0.2l0.1,0.2l0.1,0.1L23.1,31l0,0.2l0,0.1l0.1,0.1l-0.1,0.1L23,31.6l-0.1,0.2
	l-0.1,0.2l0,0.2l0.5,0.3l-0.1,0.2l-0.5,0.2l-0.2,0.1l-0.4,0L21.8,33l-0.1,0.1l0,0l-0.2,0.4l0,0.2l0.1,0l0.1,0.1l0.3-0.1l0.2-0.2
	l0.1,0l0,0l0.1,0l0.1,0l0,0l-0.1-0.2l0.1,0l0.1,0l0.2-0.1l0.1,0.1l0.2,0l0.1,0.1l0.2,0.1l0.1,0l0.1,0.1l0.1,0.1l0.1,0.1l0.2,0
	l0.1,0.1L24,33.9l0,0l0,0.1l0,0l0.1,0l0,0l0.2,0l0.1,0l0,0l0.2,0l0.3-0.1l0.3,0l0.2,0l0.2,0l0.3-0.1l0-0.1l-0.2,0l-0.2-0.2l-0.2,0
	l-0.3-0.1l-0.3-0.2l0.1,0l0.2-0.1l0.2-0.1l0.2,0.2l0.3-0.1l0.3,0.1l-0.1-0.2l0.1-0.2l0-0.2l-0.1-0.1l-0.1,0l-0.6-0.2L25.2,32
	l-0.1-0.2L25,31.7l0.1-0.4l0-0.2l0.2-0.1l0.2,0.2l0.1,0.1l0.1,0.1l0.2,0l0,0.1l0.1,0l0.1,0.1l0.1,0.1l0.3,0l0.2,0l0-0.1l0-0.3
	l0.2-0.1l0-0.2l0-0.1l0.4-0.1l0-0.4l-0.1-0.1l-0.2-0.1l-0.2,0l-0.3,0.2l-0.1,0l-0.1,0l-0.2,0l-0.2-0.3l-0.1-0.2l-0.1,0.1l-0.1,0.1
	l-0.1,0.1l-0.2,0.1l-0.1-0.2l-0.1-0.1l-0.1-0.1l0,0L24.6,30l-0.1-0.1l0-0.2l0.1,0l0.1-0.2l-0.1-0.2l0.2,0l-0.2-0.1l-0.2,0L24.3,29
	l0.1-0.1l0.2-0.1v-0.2l-0.2-0.1l0,0.1l-0.2,0L24,28.5l-0.2,0l-0.1,0l-0.1,0.1l-0.1,0.2l0,0.1l0,0l0-0.2l-0.1-0.2l-0.1-0.1l-0.1-0.1
	l-0.1-0.1c0,0-0.2,0-0.3,0c-0.1,0-0.1,0-0.1,0l-0.3,0l-0.1-0.1l-0.2,0.2l0-0.1l0-0.1l0-0.1c1.1-1.4,2.4-2.7,3.7-3.9l0.2,0l0.4,0.1
	l0.2,0.2l0.1,0.1l0.1,0.1l0.1,0l0.1,0l0.2-0.1l0.1,0.1l0.1,0.2l0.1,0.1l0.5,0.2l0.3,0.1l0,0l0,0.1l0,0.1l0,0.3l0.2,0l0.1,0.2
	l0.2,0.1l0,0.2L29,26l0,0.2l-0.1,0.1l-0.1,0.2v0.2l0,0.1l0,0.1l0.2,0l0.2-0.1l0.2-0.1l0.1,0l0.1,0l0,0l0.3-0.1l0.1,0.1l0.2,0l0.2,0
	l0.1,0.1l-0.1,0.2l0,0.2l0.1,0.2l0,0.1l-0.2,0l-0.1-0.1l-0.2-0.1l-0.4,0l-0.3,0.1l0,0l-0.2,0.1l0,0l0,0l0.1,0l0.2,0l0.1,0.1l0.3,0
	l0.1,0.1l0.2,0.1l0.2,0.1l0.2,0l0.1-0.1l0.1,0l0.1,0.1l0,0.2l0.1,0.2l0,0.3l-0.2,0l0,0.3l0,0.2l-0.2,0l-0.2,0l-0.1,0.1l0,0.1
	l0.1,0.1l0.3-0.1l0.2,0l0.1,0.2l0.1,0.2l-0.2,0.1l-0.2,0l-0.2-0.1l-0.2,0.1l-0.2,0.2l0,0.2l0.2,0.2l-0.1,0.2l0,0.2l0.1,0.1l0.1,0.1
	l0.2,0l0.2,0.1l0.1,0.3l0,0.2l-0.1,0.1L31,32l0.2-0.2l0-0.1l0.1-0.1l0.2,0l-0.1,0.2l-0.1,0.1L31.1,32l0.1,0.2l0.2,0.1l0,0.2l0.1,0.1
	l0,0l0.1,0l0,0l0.1,0.2l0.1,0.1l0,0l0,0.1l0,0.1l0.3-0.2l0,0l0,0l0.1,0.1l0.2,0.2l0,0.2l0.1,0.1l0.1,0.2l0.1,0.2l0.2-0.1l0.1-0.2
	l0.2-0.1l0.1,0.2l0.2,0.2l0.3,0l0.2,0l0.1,0.1l0.1,0.1l0.1,0.3l0.1-0.1l0.1-0.1l0-0.1l-0.1-0.1l-0.1-0.1l0.1-0.2l0.1-0.3l0-0.2
	l0.1-0.1l0-0.3v-0.2l0-0.1l0.1-0.1l0,0l0.1-0.1l0.1-0.1l0.1-0.1l0-0.2l0-0.3l0-0.2l0-0.3l0-0.1l0.2-0.1l0.1-0.2l0.4-0.1l0.2-0.2
	l0.2-0.1l0.1,0.2l0.2,0l0.1-0.1l0.1,0l0.1,0l0,0l0.2-0.2l0.1-0.2l0.1-0.2l0.1-0.1l0.2-0.1l0.3-0.4l0.2-0.1l0-0.2l0-0.3l0.1,0.1
	l0.1,0l0.2-0.1l0.2-0.1l0.1,0l0.2,0l0.2-0.1l0.1,0l0.2-0.1l0.1-0.1l0.1-0.1l0.1-0.1l0.2,0l0.2,0l0.1-0.3l0.2-0.1l0.1-0.1l0.2,0
	l0.1-0.2l0.3-0.1l0.2,0l0-0.1l0.1-0.2l0.2-0.3l-0.3,0l-0.2,0l-0.3-0.1l-0.2,0l-0.3,0.2l-0.2,0L40,26l0-0.1l-0.1-0.1l0.1-0.2
	l-0.1-0.1l-0.1,0h-0.3l-0.2,0l-0.2-0.1l0.1,0l0.2,0l0.1,0l0.1,0l0.2,0l0.1,0l0.2,0l0.1,0.1l0.1,0.1l0.2,0.2l0.1,0.1l0.2,0.1l0.2,0.1
	l0.2,0.1l0.2,0l0.1,0l0.1-0.1l0-0.2l-0.1-0.2l-0.2-0.1l-0.2-0.2L40.7,25l-0.2-0.1l-0.2-0.1l-0.1-0.1l-0.1-0.1l-0.2,0.1l-0.2,0
	l-0.2,0l-0.1-0.1l-0.1-0.1l0,0l0.1-0.1l0.1-0.1l0.1-0.1l0.2-0.1l0.1,0.2l0.1,0.1l0.1,0.1h0l0.1,0l0.1,0.1l0.1,0.2l0.2,0.1l0.1,0
	l0.2,0.1l0.1-0.1l-0.1-0.1l-0.1-0.1l0.2-0.1l-0.1-0.1l0,0L41,24.3l-0.2-0.1L40.5,24l0.3,0l0.2,0l0.2,0l0.1-0.2l0.2-0.1l0.1-0.2
	l-0.2-0.2l-0.4,0.2v-0.3l0.3-0.1l0-0.2l0-0.1l0-0.1l-0.2-0.2l0.2,0l0.1,0l0.2,0.1l0.1-0.2l0-0.2l-0.3-0.4l-0.2,0.1l-0.2,0l0.1-0.1
	l0.1-0.2l0-0.1l0-0.1l0-0.1l0.5,0h0.1l0.1,0.1l0.2,0l0.2-0.1l0,0L42,21.1L41.9,21l-0.1-0.2L41.7,21l-0.2,0l-0.1-0.1l0.3-0.3l-0.3,0
	l-0.5,0c0,0,0,0,0-0.1c0-0.1,0.2,0,0.2,0l0.3,0l0-0.2l0.1-0.2l0.2-0.3l-0.1-0.4l0.5-0.2l0-0.1l-0.4-0.2l-0.3,0L41.1,19L41,18.8
	l0.2-0.1l0.3,0l0.2,0.1l0.6-0.1l0.2-0.3l0.1-0.1l0.1-0.1l0,0l0.1-0.1l0.2-0.2l0.1-0.2l0.3,0l0.2-0.3l-0.3-0.1L43,17.3l-0.1,0l-0.1,0
	l-0.3,0l-0.7,0.1l-0.2,0.2l-0.3,0l-0.3,0l-0.2,0l-0.2,0.1l-0.2,0.2l-0.1,0.2l-0.3,0.2l0,0l-0.1,0l-0.2,0l-0.1-0.1l0.2-0.1l0.2-0.1
	l0.1-0.1l0.1-0.1l0.1-0.2l-0.1-0.1l-0.2,0l-0.3,0l-0.1,0.3l-0.4,0.1l-0.3-0.1l-0.2-0.1l0,0l-0.2,0l-0.3,0L37.4,18L37,18.1l-0.6,0.3
	l0-0.1l0-0.1l0.3-0.2l0.1,0l0.3-0.1l0.7-0.1l0.6-0.1l0.2,0l0.8-0.1l0.5,0l0.3,0l0.2-0.2l0-0.3l-0.3-0.1l-0.1,0l-0.3,0l-0.1,0l0,0
	l-0.1,0h-0.1l-0.3,0L39,16.6l0,0l-0.1-0.1c3.4-1.1,7.1-1.7,10.9-1.7c8.3,0,15.9,2.8,21.9,7.6l0,0.3l0.1,0.3L71.6,23l-0.2-0.1
	l-0.1,0.3l-0.2,0L71.1,23L71,22.8l-0.3,0.1l-0.2,0l0,0.2l-0.3-0.1L70.1,23l-0.2,0l-0.1,0.1l0,0.1l0,0.1l0,0l-0.3,0l-0.2,0l-0.1,0
	l-0.1,0l0.2-0.1l0.1-0.1l-0.2,0L69,23.1l-0.1,0l-0.4,0.3l-0.2,0.2l-0.2,0l-0.1,0.1l-0.2,0.2L67.6,24L67.5,24l0,0l-0.1,0.1l-0.2,0.2
	l0,0.2v0.2l-0.2,0.2L66.8,25l-0.2,0.1l-0.2,0l-0.2-0.2l0-0.2l0.1-0.1l0.2-0.2L66.5,24l-0.2-0.2l-0.3-0.1l-0.5,0.1l0,0.2l0.1,0.1
	l0,0.3l0,0.2l0,0.2l0,0.3l0,0.2l0,0.2l-0.3-0.1l-0.1-0.1l-0.1,0l-0.2,0.1l-0.1,0.1l0,0l-0.1,0.2L64.4,26l0,0.1l0.2,0.2l0.1,0.1
	l-0.2,0l-0.2-0.1l-0.2-0.1l-0.2,0l-0.2-0.1l-0.1,0l0,0.2l0,0.2l0.1,0.1l0.2,0.2l0,0.2l-0.2,0.1l-0.2,0l-0.3-0.1l-0.1-0.1l-0.1-0.2
	l-0.2-0.2l-0.1-0.3l-0.1-0.2l-0.2-0.1L62.2,26L62,25.9l-0.1-0.1l-0.2-0.3l-0.2-0.3l0.4,0.3l0.2,0l0.1,0.1l0.2,0.1l0.3,0l0.2,0l0.2,0
	l0.4,0l0.2,0.1l0.3-0.1l0.2-0.3l0.1-0.1l0.1-0.1l0.1-0.1l0.1-0.1l-0.1-0.3l-0.1-0.2l-0.2,0L64,24.3l-0.1,0l-0.2-0.2l-0.1,0L63.5,24
	l-0.2-0.1l-0.6-0.1l-0.2,0l-0.3-0.1h-0.2l-0.3,0l-0.1-0.1l-0.3-0.1l0.1-0.1l-0.2-0.1l-0.1,0l-0.2,0l-0.2,0l-0.3,0.2l-0.1-0.1
	l0.1-0.1l0.1-0.1l0.2-0.1l-0.3-0.3l-0.1,0l-0.1-0.1l-0.2-0.1l0,0.1l0,0.2l-0.2,0.1L59.6,23l0.1-0.2l-0.1-0.1l-0.1-0.1l-0.1,0.1
	l0,0.2l-0.1,0.2l0,0.1l-0.1,0.1l-0.1-0.1l0-0.1L59,23l0,0.2l-0.1,0.2l0,0l-0.1,0.1l0,0.1l0,0.1l-0.1,0.1l-0.1-0.2l0-0.1l0.1-0.1l0,0
	l0-0.1l0-0.1L58.7,23l-0.1,0l-0.1,0l-0.1,0l0,0l-0.1,0v0.2l-0.1,0.1l-0.2,0.1l0,0.2L58,23.6l-0.2,0.1l-0.1,0l-0.3-0.1l-0.1,0l-0.1,0
	l0.1,0.3l-0.1,0.1l-0.1,0l-0.2,0L57,24l-0.1,0l-0.1,0.1l-0.1,0.2l-0.1,0l-0.1,0.2l-0.1,0.1l-0.1,0.2l-0.1,0.1l0,0.2L56,25.3
	l-0.2,0.1l-0.1,0.1l-0.1,0l-0.1,0l0.1,0.2l0.1,0.2l0,0.1l0,0.1l-0.1,0.1l-0.1,0.2l-0.1,0l-0.1,0.1l0,0.2L54.9,27l0,0l-0.1,0.2
	l-0.1,0.1l0,0.2l-0.1,0.1l-0.1,0.1l-0.1,0l-0.2,0.3l-0.1,0.2l-0.1,0.1l0,0.2l0.2,0.1l0.1,0l-0.1,0.2l0,0l-0.2,0.1l-0.2,0l0-0.1
	l0-0.1l-0.1,0l-0.1,0l-0.2,0.1l0,0l-0.1,0.1l0,0l0.1,0.1l0.1,0.1l-0.3,0.1l0,0.2l-0.1,0l-0.2,0l-0.1,0.1l0,0.1l-0.1,0l-0.1,0.1
	l0,0.2l-0.2,0l-0.1,0.1l-0.2,0.1l-0.1,0.1L52,30.5l0.1,0.2l0,0.2l0.1,0.3l0.1,0.1l0.3-0.1l0,0.3l-0.2,0.1l0,0.2l0,0.2l0.2,0l0.1,0.2
	l0,0.2l0.2,0.1l0.2,0l0.5-0.1l0.2-0.2l0.2-0.3l0.3-0.1l0.1-0.2l0.2-0.1l0.2,0.1l0.1,0.2l0.1,0.2l0,0.1l0,0.1l0,0.1l0.2,0.3l0.3,0.2
	l0.1,0.1l0.1,0.1l-0.1,0.2l-0.1,0.1l-0.2,0.1l0,0.2l-0.2,0l-0.1,0l0,0.2L55,34h0.2l0.1-0.1l0-0.2l0.1-0.2l0.2-0.1l0,0.1l0.1,0.1
	l0.3-0.1l0.1-0.1l0-0.2l0.1-0.2l0.1-0.1l0.4-0.1l0.1-0.3l0-0.2l0-0.3l0-0.2l0-0.1l0-0.1l0-0.1l0-0.2l0-0.1l0.2,0l0.1,0l0.2-0.1
	l0.1-0.1l0.1-0.1L57.2,31l0.1-0.3l-0.2-0.2L57,30.4l-0.2,0l-0.1-0.1l-0.1-0.1l-0.2-0.8l0.1-0.1l0-0.2l0.1-0.1l0.1-0.1l0-0.2l0,0
	l0.1-0.1l0-0.1v-0.1l0.1-0.1l0.4-0.1l0.2-0.1l0-0.2l0.2-0.1l-0.1-0.2l-0.1-0.2l0.1-0.2l0.1-0.1l0.1-0.2l0.1-0.1l0.1-0.1l0.3,0
	l0.1,0.1l0.4-0.1l0.2,0.1l0,0.2V27l-0.2,0.2l-0.2,0.2l-0.1,0.2l-0.1,0.2l-0.1,0.3l-0.2,0.2l0,0l-0.1,0.1l0,0.1l0.1,0.3l0,0.2
	l0.1,0.3l-0.1,0.2l0.1,0.1l0.1,0.1l0.1,0l0.2-0.1l0.1,0l0,0.1l-0.1,0.2l0.3,0l0.1,0.1l0.3,0.1l0.1-0.1l0.1-0.2l0.1-0.1l0.2-0.2
	l0.2-0.1l0.2,0l0.2-0.1l0.2,0l0.2,0.2l0.2,0.1l0.2,0l0.1-0.1l0.1,0.1L61.2,30l-0.1,0.1l-0.2,0l-0.2-0.1l0,0.2l-0.3,0.1l-0.2,0
	l-0.2,0l-0.2-0.1l-0.2,0.2l-0.2,0l-0.2,0l-0.1,0.1l-0.1,0.1l0,0.2l0,0l0.1,0.1l0,0l0.1,0.1l0,0.6L59.3,32l-0.1,0.1L59,32.1L58.9,32
	l-0.1-0.1l-0.1-0.2l-0.2,0.1l0.1,0.3l0,0.3l-0.1,0.2l-0.1,0.2l-0.1,0.1l0,0.1l0,0l0,0l0.1,0.1l0,0.2l0,0l-0.2,0.2l-0.1-0.1l-0.1,0
	l-0.1,0.2l0,0.2l0,0.2l-0.2-0.1L57.8,34l-0.1,0.2L57.6,34l-0.1-0.1l-0.2,0l-0.1,0.1l-0.4,0.2l-0.3,0.1l-0.2,0.1l-0.2,0.1l-0.3,0
	l-0.1-0.1l-0.3-0.1l-0.1,0l-0.1,0.3l-0.2,0l-0.1-0.1l-0.1-0.1l-0.2,0l-0.2-0.1l-0.1-0.2l0.2-0.1l0-0.2l-0.1-0.1l0-0.2l0.1-0.3l0-0.1
	l-0.2-0.1l-0.1-0.2l0.1-0.2l0-0.2l0,0l-0.1-0.1l0-0.1l-0.1,0.1l-0.1,0.1l0,0L54,32.7l-0.1,0.2L53.7,33l0.2,0l-0.3,0.3l0.1,0.2
	l0.1,0.1l0,0.2l0.1,0.2l0.1,0.1l0.1,0.2l0.1,0.3l0.1,0.2L54,35.2l-0.1,0l-0.2,0l-0.2,0.1l-0.3,0.1l-0.1,0l-0.2,0l0,0.1l-0.1,0.1
	l-0.1,0.3l0,0.2v0.3l0,0.1l-0.3,0l-0.1,0l0,0l-0.2,0.1l-0.2,0.1l-0.2,0.1l0,0.2l-0.1,0.2l-0.1,0.1l-0.2,0.1l-0.1,0.2l-0.1,0.1
	L51,37.8l-0.1-0.2l-0.2,0l0,0.2l0.1,0.2l0.1,0.2l-0.1,0.1l-0.2,0l-0.2,0l-0.2,0l-0.2,0.2l-0.1,0.1l-0.1,0.1l0,0.2l0.2,0l0.3,0
	l0.3,0.2l0.3,0.2l0.3,0.2l0.1,0.2l0.1,0.4l0,0.1l0,0.1l0,0.3l0.1,0.4l-0.2,0.2l-0.3-0.1l-0.3,0l-0.3-0.1l-0.3,0l-0.3,0l-0.4,0.2
	l-0.3,0l-0.2-0.1l-0.1,0.1l-0.1,0.1l-0.3,0.1l-0.1,0.2l0,0.2l0.2,0.2l0.1,0.2l0.1,0.3l0,0.3l-0.1,0.2l0,0.3l0,0.3l0.1,0.2l0.1,0.1
	l0.1,0.4l0,0.2l0.3,0l0.3-0.1l0.1,0l0.2,0.2l0.2,0.1l0.2,0l0.2-0.2l0.1-0.2l0.3,0l0.2,0l0.1-0.2l0.1-0.2l0.2-0.2l0.2-0.1l0.1-0.2
	l0-0.2l0.2-0.2l0-0.1L52,43l0-0.2l0.1-0.2l0.1-0.2l0.1-0.1l0.2-0.2l0.2-0.2l0.2-0.2l0.1-0.1l0-0.3l0-0.2l-0.2-0.2l0.1-0.1l0.2-0.1
	l0,0h0.1h0.2l0.3,0.1l0.2,0.1l0.1-0.2l0.1-0.2l0.2-0.1l0.2-0.2l0.1-0.2l0.3-0.1l0.2,0.3l0.2,0.2l0.2,0.2l0.1,0.2l0.2,0.2l0.2,0.1
	l0.2,0.1l0.2,0.1l0.3,0.1l0.3,0.2l0.3,0.2l0.2,0.1l0.1,0.2l0,0.3l0,0.2l-0.1,0.2L57.6,43l-0.2,0l-0.2,0.1L57,43.2l-0.1,0l0.1,0.2
	l0.3,0.1l0.2,0.1l0.1,0.1l0-0.2l0.1-0.2l0.2-0.1L58,43l0.1-0.2l0.1-0.2l0-0.3l0-0.1l-0.1-0.1l0-0.2l0.3-0.2l0.2,0.1l-0.2-0.3
	l-0.2-0.2L58,41.3l-0.1-0.1L57.7,41l-0.1,0L57,40.8l-0.2-0.2l-0.1-0.2l-0.2-0.1l-0.3-0.2L56.1,40l0-0.1l0-0.1l0-0.1L56,39.3l0.4-0.2
	l0.1,0.5l0,0l0,0l0.1-0.1l0.2-0.3l0.3,0.2l0,0.1l0,0.1l0,0l0.1,0.2l0.3,0.1l0.3,0.1l0.4,0.3l0.5,0.1l0.2,0.3l0.1,0.7l0.1,0.2
	l0.2,0.3l0.4,0.2l0.2,0.3l0.2,0.1l0.3,0l-0.2,0.2l0.1,0.2l0.2,0l0.3-0.1l0.2-0.2v0l0-0.1l0.1,0l0.1,0L61,42.2l-0.1,0l-0.1,0h0
	l-0.2,0L60.5,42l-0.1-0.2l0-0.2l-0.1-0.2l0-0.2l0.2,0.1l0.1,0l0.1,0v0l0.1-0.1L60.8,41l0.2,0l0.4,0l0.1,0.2l0.1,0.3l0.1,0.2l0.1,0.1
	l0,0.2l-0.1,0.2l0.1,0.2l0.2,0l0.1,0.4l0.2,0l0.2,0.2l0.3,0.1l0.4,0.2l0.2-0.1l0.1-0.2l0.1-0.1l0.3,0l0.3,0.1l0.2,0.1l0.3,0l0.2-0.2
	l0.2-0.3l0.2-0.2l0.1,0.4l0,0.1l0,0.1l0,0.2l0.1,0.4l0,0.3l-0.1,0.4l0,0.3l0,0.2L65.3,45L64.6,45l-0.2,0.1l-0.2-0.1l-0.3,0l-0.3,0.2
	l-0.1,0.1l-0.2,0l-0.2,0L63,45.3l0,0.3l-0.2,0.1l-0.1,0l-0.1,0l-0.2-0.1l-0.2,0l-0.2,0l-0.2-0.1l-0.1,0l-0.1,0h-0.1h-0.2l-0.2,0
	l-0.2,0l-0.2-0.2l-0.1-0.1l-0.2,0l-0.2,0L60,45.5l-0.1,0.1l0,0.3l0,0.2l-0.1,0.1l-0.1,0.2l-0.3,0l-0.1,0l-0.2-0.1l-0.2-0.1l-0.3-0.1
	L58.2,46L58,45.8l-0.4,0l-0.3-0.1l-0.3,0l-0.2-0.2l-0.2,0l-0.2-0.1l-0.1-0.2l-0.1-0.1l0-0.1l0.1-0.1l-0.1-0.4l-0.2-0.1l0.1-0.3
	l0.2-0.3l-0.3,0l-0.2,0l-0.2,0l-0.3,0.1l-0.3,0l-0.2-0.1L54.9,44l-0.2,0l-0.2,0l-0.3-0.1L53.9,44l0,0l-0.1,0.1l-0.1,0.1l-0.4,0.1
	l-0.3,0l-0.2,0.1l-0.1,0.2l-0.2,0.2l-0.3,0.1L52.1,45l-0.3,0.1l-0.2,0.1l-0.2,0.1l-0.4,0.1l-0.2,0.1l-0.2,0l-0.2-0.1l-0.2-0.1
	l-0.2,0l0,0.3l0,0.3l-0.2,0.3l-0.1,0.2l0,0l-0.2,0.2h0l-0.2,0.2L49.2,47l0,0.5l0,0.3l0,0.2l0,0.3l-0.1,0.4l-0.3,0.5l-0.1,0.2
	l-0.2,0.2l-0.1,0.2l-0.2,0.1L48,50.3l-0.3,0.5l0,0.3l-0.2,0.3l-0.1,0.5l-0.3,0.4l0.1,0.3l0.1,0.3l0,0l0,0.1l0,0.1l0,0.4l0.1,0.3
	l0.2,0.2l0.1,0.4l0,0.3l0,0.4l-0.1,0.4l-0.1,0.4l0.2,0.2l0.1,0.3l0.1,0.2L48,57l0.2,0.2l0.2,0.2l0.2,0.1l0.1,0.1l0.3,0.2l0.2,0.2
	l0.1,0.3l0.1,0.2l0.2,0.3l0.1,0.1l0,0l0.1,0.1l0.2,0.2l0.5,0.3l0.3,0.2l0.3,0.2l0.2,0.1l0.2,0.1l0.2,0l0.7-0.3l0.3-0.1l0.3,0
	l0.3-0.1l0.2,0l0.4-0.1l0.3-0.1l0.2-0.1l0.3,0l0.3-0.3l0.2-0.2l0.6-0.2l0,0l0.1,0l0.1,0l0.3,0.2l0.1,0.2l0.1,0.3l0.3,0.1l0.4-0.1
	l0.2-0.1l0.2,0l0.4,0.3l0.1,0.2l0,0.5l0,0.2l-0.1,0.3l0.1,0.7l-0.2,0.4l0.4,0.4l0.5,0.5l0.5,0.6l0.1,0.3l0.2,0.2l0.3,0.3l0.1,0.5
	l0.1,0.2l0,0.1l0.1,0.1l0.1,0.4l0.1,0.3l0,0.3l0.1,0.5l-0.2,0.4l0,0.2l0,0.5l0,0.4l0,0l0,0.1l-0.1,0.2l0,0.4l0.2,0.4l0.2,0.3
	l0.3,0.3l0.3,0.7l0.3,0.3l0.4,0.7l0.1,0.4l0.1,0.4l0.2,0.5l0.1,0.1l0,0.1l0.1,0.2l0.2,0.3l0.3,0.3L63,74l0.2,0.4l0.2,0.4l0,0.1l0,0
	l0.1,0.2l0.1,0.2l0,0.5l0.1,0.4l0.1,0.2l0.3,0.1l0.4,0l0,0l0.2,0l0.2,0l0.7-0.1l0.2-0.2l0.5-0.1l0.2,0l0.5-0.2l0.2-0.2l0,0l0.1-0.1
	l0-0.1l0.1-0.2l0.1-0.2l0.2-0.2l0.1-0.2l0.1-0.2l0.1-0.2l0-0.3l0.1-0.2l0.1-0.2l0.2-0.2l0.1-0.2l-0.2-0.2l0.4-0.1l-0.1-0.5l-0.1-0.3
	l-0.2-0.2l0.2-0.1l0.2-0.2l0.3-0.1l0.2-0.1l0.1-0.2l0-0.2l-0.1-1.1L69,69.4L69,69.3l-0.2-0.2L68.7,69l0-0.2l0.2-0.1l0.1-0.2l0.1-0.4
	l0.1-0.2l0.5-0.3l0.4-0.3l0.1-0.3l0.2-0.5l0.1-0.5l-0.1-0.3l0-0.3l0-0.1l0-0.2l-0.1-0.2l0-0.1l-0.1-0.2l-0.1-0.4L70,63.9l-0.2-0.2
	l-0.1-0.7l0.1-0.3l-0.2-0.1l-0.2-0.2l0-0.3l0.2-0.6L69.5,61l0.1-0.3l0.1-0.3l0.3-0.3l0.1-0.4l0.3-0.5l0.1-0.4l0.2-0.2l0.3-0.3
	l0.3-0.4l0.4-0.6L72,57l0.1-0.5v-0.3l0.1-0.5l0.2-0.6l0.2-0.5l0-0.4l0.1-0.4l0-0.3l0-0.1l0,0l-0.1-0.3l-0.3,0.2l-0.2,0.1l-0.3,0.1
	l-0.1,0.1l-0.2,0.2l-0.1,0.1L71.3,54l-0.4,0l-0.1,0l-0.2,0L70.4,54L70,53.7l-0.3-0.3l0-0.2l-0.3-0.3l-0.1-0.2l-0.2-0.2l-0.2-0.2
	l-0.2-0.2l-0.2-0.1l0,0L68.2,52L68.1,52L68,51.6l-0.1-0.3l0,0l-0.1-0.1l-0.1-0.2l-0.2-0.2l-0.2-0.3L67,50.4L66.9,50v-0.4l-0.1-0.2
	l-0.2-0.3l-0.3-0.2L66,48.3l-0.2-0.2l-0.2-0.6l-0.2-0.2L65.2,47l0-0.3L65,46.5l0-0.2l0-0.2l0.2,0.3l0.3,0.1l0.4,0.2L66,47l0.2,0.3
	l0.4,0.4l0.3,0.3l0.5,0.3l0,0.2l0,0.3l0,0.3l0.2,0.2l0.1,0.2l0.3,0.5l0.1,0l0.1,0.1l0.3,0.2l0.3,0.3l0.2,0.3l0.2,0.4l0,0l0,0.1
	l0.1,0.2l0.1,0.5l0.1,0.2l0.4,0.4l0.2,0.1l0.3,0.1l0.4-0.2l0.2,0l0.4-0.1l0.5-0.3l0.3-0.2l0.2-0.3l0.2-0.2l0.1-0.1v0l0-0.3l0.4-0.3
	l0.1-0.2l0.1-0.1l0.1-0.1l0,0l0.2-0.3l0.5-0.2l0.1-0.3l0.1-0.4l0.1-0.2l0.2-0.5l0-0.3L75,48l-0.2-0.3l-0.5-0.3l-0.3-0.1l-0.3-0.1
	l-0.2-0.3l-0.2-0.1l0-0.3l-0.3,0.4l0,0L73,47.1l0,0l-0.5,0.2l-0.2,0.1l-0.2,0l-0.2-0.3l-0.1-0.3l-0.2,0l-0.1,0.3l-0.2-0.3l-0.2-0.3
	L70.8,46l-0.2-0.3l-0.2-0.3l-0.2-0.2l0-0.3l0.4-0.1l0.4-0.1l0.3,0.3l0.1,0.2l0.1,0.2l0.2,0.3l0.1,0.2l0.3,0.2l0.2,0.1l0.3,0.1l0.3,0
	l0.1,0l0,0l0.3-0.1l0.2,0l0.2,0l0.2,0.3l0.1,0.2l0.2,0l0.6,0.1l0.3,0.1l0.6-0.2l0.9-0.3l0.3,0.1l0.1,0l0.1,0l0,0l0.1,0.2l0.5,0.2
	l0.3,0.2l0.3,0.1l0.3,0l-0.3,0.5l-0.2,0.2l0.4,0.3l0.4,0.1l0.2,0l0.2-0.1l-0.1-0.4l0-0.2l0.2,0.1l0.1,0.3l0.1,0.4l0,0.4l0.1,0.5
	l0.2,0.6l0,0.1l0,0l0.3,0.7L81,51l0.1,0.5l0,0.1l0.1,0.3l0,0l0.4,0.4l0.4,0.6l0.1,0.5l0.3,0.2l0.3-0.2l0.1-0.3l0.2-0.1l0.1,0.2
	l0.1,0.5l0.2,0.4l0.1,0.4l0.3,0.1l0.2-0.2L84,53.9l-0.1-0.3l-0.3-0.3l-0.2-0.2l-0.1-0.2l-0.2-0.3l0-0.3l0-0.3l-0.1-0.4l0.1-0.4
	L83,50.8L83,50.4l0-0.3l0.4-0.5l0.3-0.3l0.3-0.1l0.3-0.5l0.2-0.2l0.1-0.2l0.2-0.4l0.1-0.1l0.1-0.1c0.1,0.8,0.1,1.6,0.1,2.5
	C85.1,69.6,69.3,85.5,49.8,85.5z M62.6,40.8l-0.1,0.1l-0.1,0l-0.1,0l-0.1,0L62.1,41l-0.1,0l0.1-0.1l0.3-0.1l0,0l0.1-0.1l0-0.2
	l-0.1,0l-0.1,0l-0.1-0.1L62,40.3l-0.1-0.2l0.1-0.2l0.1-0.2l0-0.1l0.1-0.1l0,0l0-0.1L62.2,39l0.1-0.1l0-0.1l0.1-0.1l0-0.2l-0.1-0.1
	l0.1-0.1l0.1-0.1l0.2-0.2l0.1-0.1l0.1-0.2l0.2,0l0.1,0l0.1,0l0,0l0.1,0.1l0.3,0l0.2,0l0.2-0.1l0,0.2L63.8,38l-0.2,0.1l-0.1,0.1
	l0,0.1l0.1,0h0.2l0.1,0.1l0,0.1l0,0.1l0.1,0.1h0.1l0.2-0.1l0.2-0.1l0.1-0.1l0.1,0l0.1,0l0.1,0l0.1-0.1l0.3-0.1l0.1,0.1l0.1,0.1
	l0.1,0.1l0.1,0.1l0.2,0.1l0.1,0.1l0.1,0.1l0.1,0.1l0.1,0.1l0.1,0l0.3,0.1l0.2,0l0.1,0.1l0.1,0.1l0,0l0,0.1l0,0l0,0.1l0,0.1l-0.1,0.2
	l-0.1,0.1l-0.1,0.1l-0.2,0.1l-0.1,0l-0.1,0l-0.1,0l0,0l-0.1,0l0,0.1l0,0l-0.1,0.1l-0.4,0l-0.2-0.1l-0.1,0l0-0.1h-0.1l-0.1,0.1
	L65.1,40L65,40l-0.1,0h-0.1l0-0.1l-0.2,0l-0.6,0L63.8,40l-0.2,0.2l-0.1,0.1l-0.2,0.1l0,0.1l-0.1,0.1L63,40.6l-0.1-0.1l-0.2,0l-0.1,0
	L62.6,40.8z M65.2,37.5l0.1,0.1l0.1,0.1l-0.1,0.2l0,0.1l-0.2,0L65,38l-0.2,0l-0.3,0l-0.1,0L64.3,38l0-0.1l-0.1,0l-0.1,0L64,37.8
	l-0.1-0.1l0.4,0l0.1,0l0.1-0.1l0.1-0.2l0.2-0.1l0.3-0.1l0.1-0.1l0.1-0.1l0.1,0l0.1-0.1l0,0l0.1,0l0.1,0l0.1,0l0,0.1l-0.1,0.1
	l-0.1,0.1l-0.1,0.1l-0.1,0l0,0.1l0,0l-0.1,0L65.2,37.5L65.2,37.5z"/>
<g>
	<g>
		<path d="M28.2,7l-0.7-1.4c0.5-0.2,1-0.5,1.5-0.7l0.7,1.5C29.1,6.5,28.6,6.7,28.2,7z"/>
	</g>
	<g class="fly-dots">
		<path d="M49.4,100c-1.1,0-2.2,0-3.2-0.1l0.1-1.6c1,0.1,2.1,0.1,3.1,0.1L49.4,100z M52.7,99.9l-0.1-1.6c1.1-0.1,2.1-0.2,3.1-0.3
			l0.2,1.6C54.8,99.8,53.8,99.9,52.7,99.9z M43,99.5c-1.1-0.1-2.1-0.3-3.2-0.5l0.3-1.6c1,0.2,2.1,0.4,3.1,0.5L43,99.5z M59.1,99.1
			l-0.3-1.6c1-0.2,2.1-0.4,3.1-0.7l0.4,1.6C61.2,98.7,60.2,98.9,59.1,99.1z M36.6,98.2c-1-0.3-2.1-0.6-3.1-1l0.5-1.5
			c1,0.3,2,0.7,3,0.9L36.6,98.2z M65.4,97.5L64.9,96c1-0.3,2-0.7,2.9-1.1l0.6,1.5C67.4,96.8,66.4,97.2,65.4,97.5z M30.5,96.1
			c-1-0.4-2-0.9-3-1.4l0.7-1.4c0.9,0.5,1.9,0.9,2.9,1.3L30.5,96.1z M71.4,95.1l-0.7-1.5c0.9-0.5,1.9-0.9,2.8-1.5l0.8,1.4
			C73.3,94.1,72.4,94.6,71.4,95.1z M24.7,93.2c-0.9-0.5-1.9-1.1-2.7-1.7l0.9-1.3c0.9,0.6,1.8,1.1,2.7,1.7L24.7,93.2z M77,91.9
			l-0.9-1.4c0.9-0.6,1.7-1.2,2.6-1.8l1,1.3C78.8,90.7,77.9,91.3,77,91.9z M19.3,89.6c-0.9-0.7-1.7-1.4-2.5-2.1l1.1-1.2
			c0.8,0.7,1.6,1.4,2.4,2L19.3,89.6z M82.2,88l-1.1-1.2c0.8-0.7,1.6-1.4,2.3-2.1l1.1,1.2C83.8,86.6,83,87.3,82.2,88z M14.4,85.3
			c-0.8-0.8-1.5-1.6-2.2-2.4l1.2-1.1c0.7,0.8,1.4,1.6,2.1,2.3L14.4,85.3z M86.9,83.5l-1.2-1.1c0.7-0.8,1.4-1.6,2-2.4l1.3,1
			C88.3,81.8,87.6,82.7,86.9,83.5z M10.1,80.4c-0.7-0.9-1.3-1.7-1.9-2.6l1.3-0.9c0.6,0.9,1.2,1.7,1.8,2.6L10.1,80.4z M90.9,78.4
			l-1.3-0.9c0.6-0.9,1.2-1.7,1.7-2.6l1.4,0.8C92.1,76.6,91.5,77.5,90.9,78.4z M6.5,75C6,74.1,5.5,73.1,5,72.2l1.4-0.7
			c0.5,0.9,1,1.9,1.5,2.8L6.5,75z M94.2,72.8L92.8,72c0.5-0.9,0.9-1.9,1.3-2.8l1.5,0.6C95.2,70.8,94.7,71.8,94.2,72.8z M3.7,69.2
			c-0.4-1-0.8-2-1.1-3l1.5-0.5c0.3,1,0.7,2,1.1,2.9L3.7,69.2z M96.8,66.8l-1.5-0.5c0.3-1,0.7-2,1-3l1.6,0.4
			C97.5,64.8,97.1,65.8,96.8,66.8z M1.6,63.1c-0.3-1-0.5-2.1-0.7-3.2l1.6-0.3c0.2,1,0.4,2,0.7,3.1L1.6,63.1z M98.5,60.6L97,60.2
			c0.2-1,0.4-2,0.6-3.1l1.6,0.2C99,58.5,98.8,59.5,98.5,60.6z M0.3,56.7c-0.1-1.1-0.2-2.2-0.3-3.2l1.6-0.1c0.1,1,0.2,2.1,0.3,3.1
			L0.3,56.7z M99.5,54.2L97.9,54c0.1-1,0.1-2.1,0.1-3.1l1.6,0C99.6,52,99.6,53.1,99.5,54.2z M-0.1,50.2v-0.1c0-1.1,0-2.1,0.1-3.1
			l1.6,0.1c-0.1,1-0.1,2-0.1,3L-0.1,50.2z M98,47.7c-0.1-1.1-0.1-2.1-0.3-3.1l1.6-0.2c0.1,1.1,0.2,2.1,0.3,3.2L98,47.7z M1.9,44
			l-1.6-0.2c0.1-1.1,0.3-2.1,0.5-3.2l1.6,0.3C2.2,41.9,2,42.9,1.9,44z M97.2,41.5c-0.2-1-0.4-2.1-0.7-3.1l1.6-0.4
			c0.3,1,0.5,2.1,0.7,3.2L97.2,41.5z M3.1,37.8l-1.6-0.4c0.3-1,0.6-2.1,0.9-3.1L4,34.8C3.7,35.8,3.4,36.8,3.1,37.8z M95.7,35.4
			c-0.3-1-0.7-2-1.1-3l1.5-0.6c0.4,1,0.8,2,1.1,3.1L95.7,35.4z M5.1,31.9l-1.5-0.6c0.4-1,0.9-2,1.3-3L6.4,29
			C5.9,29.9,5.5,30.9,5.1,31.9z M93.4,29.6c-0.4-0.9-0.9-1.9-1.4-2.8l1.4-0.8c0.5,0.9,1,1.9,1.5,2.9L93.4,29.6z M90.4,24.1
			c-0.6-0.9-1.2-1.7-1.8-2.6l1.3-1c0.6,0.9,1.3,1.8,1.8,2.7L90.4,24.1z M86.7,19c-0.7-0.8-1.4-1.6-2.1-2.3l1.2-1.1
			c0.7,0.8,1.5,1.6,2.2,2.4L86.7,19z M82.3,14.5c-0.8-0.7-1.6-1.4-2.4-2l1-1.3c0.8,0.7,1.7,1.4,2.5,2.1L82.3,14.5z M77.4,10.6
			c-0.9-0.6-1.7-1.2-2.6-1.7l0.8-1.4c0.9,0.6,1.8,1.2,2.7,1.8L77.4,10.6z M72.1,7.3c-0.9-0.5-1.9-0.9-2.8-1.4l0.7-1.5
			c1,0.4,2,0.9,2.9,1.4L72.1,7.3z M32.5,5.1l-0.6-1.5c1-0.4,2-0.7,3.1-1.1L35.5,4C34.5,4.3,33.5,4.7,32.5,5.1z M66.3,4.8
			c-1-0.4-2-0.7-3-1l0.5-1.5c1,0.3,2.1,0.6,3.1,1L66.3,4.8z M38.5,3.2l-0.4-1.6c1-0.3,2.1-0.5,3.2-0.7l0.3,1.6
			C40.5,2.7,39.5,3,38.5,3.2z M60.3,3c-1-0.2-2-0.4-3.1-0.6l0.2-1.6c1.1,0.2,2.1,0.4,3.2,0.6L60.3,3z M44.7,2.1l-0.2-1.6
			c1.1-0.1,2.1-0.2,3.2-0.2l0.1,1.6C46.8,2,45.7,2,44.7,2.1z M54.1,2.1C53,2,52,1.9,50.9,1.9l0-1.6c1.1,0,2.2,0.1,3.2,0.2L54.1,2.1z
			"/>
	</g>
	<g>
		<path d="M7.9,26.1l-1.4-0.8c0.3-0.5,0.6-0.9,0.8-1.4l1.4,0.9C8.5,25.2,8.2,25.6,7.9,26.1z"/>
	</g>
</g>
<g>
	<g class="plane">
		<path d="M22.8,7.4c1.1-1.1,2.7,0.6,1.6,1.7l-4.5,4.5l2.5,10.1l-1.7,1.7l-4.2-8.4l-3.4,3.4l0.3,2.6l-1.3,1.3l-1.5-2.9l-2.9-1.6
			l1.3-1.3l2.6,0.3l3.4-3.4l-8.3-4.3l1.7-1.7l10,2.5L22.8,7.4z"/>
	</g>
</g>
</svg>
