<?xml version="1.0" encoding="utf-8"?>
<!-- Generator: Adobe Illustrator 19.2.1, SVG Export Plug-In . SVG Version: 6.00 Build 0)  -->
<svg version="1.1" id="Layer_1" xmlns:sketch="http://www.bohemiancoding.com/sketch/ns"
	 xmlns="http://www.w3.org/2000/svg" xmlns:xlink="http://www.w3.org/1999/xlink" x="-50px" y="-50px"
	width="100px" height="100px" viewBox="0 0 100 100"
	 style="enable-background:new 0 0 100 100;" xml:space="preserve">
<title>chart_line_1</title>
<description>Created with Sketch (http://www.bohemiancoding.com/sketch)</description>
<polygon points="83.8,88.5 11.5,88.5 11.5,87.3 11.5,16.2 11.5,16.2 9.9,16.2 12.3,12.4 14.6,16.2 13.1,16.2 13.1,86.9 83.8,86.9
	83.8,85.3 87.6,87.6 83.8,90.1 83.8,88.5 "/>
<path d="M18,82.3c-1.7-0.5-1.8-2.7-1.8-2.7l11.2-31.9c0.3-0.9,2.8-1.4,3.8-0.9l21.6,13.6l26.6-36.2c0,0,1.8-1.4,3.3-0.5
	c1.5,1,1.2,3,1.2,3L55.4,65.7c-0.4,0.6-2.8,0.8-3.5,0.3c-7.1-4.4-21.1-13.2-21.1-13.2l-9.6,28.2C21.2,81.1,19.7,82.8,18,82.3z"/>
</svg>
