<svg id="Layer_1" data-name="Layer 1" xmlns="http://www.w3.org/2000/svg" x="-50px" y="-50px"
	width="100px" height="100px" viewBox="0 0 57.05 90.3">
  <defs>
    <style>
      .cls-1 {
        fill: #fff;
      }
    </style>
  </defs>
  <title>location-pin</title>
  <path d="M63.35,64.4c-11.89,17-13.6,31.43-13.6,31.43-0.26,1.19-1.32,1.19-1.58,0,0,0-2.25-14.4-13.87-31.43-9.64-13.47-14-18.76-14-29.72A28.16,28.16,0,0,1,48.69,6.42,28.46,28.46,0,0,1,77.35,34.69C77.35,45.65,68.9,56.35,63.35,64.4Z" transform="translate(-20.3 -6.42)"/>
  <path class="cls-1" d="M29.25,37.79C28,36.28,28.1,35.12,29,34s2.3-1.27,4.9-.39c0.9,0.55.11,1.73,1,2.26a1.2,1.2,0,0,0,1.31-1.65c-0.4-2-3.81-3.89-6.5-3.66-2.52.22-5,2.7-5,4.94s0.81,3.25,3,3.85a11.5,11.5,0,0,0,6-.09c1.09-.27,2.14-0.89,3.49-0.63-3.08,2.78-9.32,3.25-12.13,1-1.58-1.24-2.54-4.36-1.49-6.08,1.4-2.3,3.28-4.24,6.29-4.22s5.74,0.62,7.4,3.45c1.24,2.13.42,4.25-1.91,4.62A57.55,57.55,0,0,1,29.25,37.79Z" transform="translate(-20.3 -6.42)"/>
  <path class="cls-1" d="M70.79,33.36c0.92,1.24,2.69-.58,3.32,1.32-1.08.89-2.66,0-3.61,1.32,1.48,1.34,3.34,0,5.11.54-3.36,1.89-5.54,1.61-7.67-.9a12.39,12.39,0,0,1-5.21,2.85c-0.91-1.8-.4-3.84-1.37-5.4,2.14-2.06,4.08-2,7.12.13,0.65-.34-0.05-1.3.78-1.62a14,14,0,0,1,5.21-.13C73.87,33.68,71.51,31.56,70.79,33.36Zm-4,.45c-0.84-1.11-1.84-1-3-.47-0.3,1.13-.86,2.2.38,3.2C65.49,36,66.77,35.58,66.8,33.81Z" transform="translate(-20.3 -6.42)"/>
  <path class="cls-1" d="M47.16,37.87a1.45,1.45,0,0,1-1.93.51C44.16,37.93,43,37.6,42,37.25c-1,.26-0.13,1.85-1.74,1.72a23,23,0,0,1-.15-6.35,4.37,4.37,0,0,1,4.9-.9c0.76,1.75-.95,2.52-1.3,3.94,0.8,1.23,2.64,1.1,3.52,2.31Z" transform="translate(-20.3 -6.42)"/>
  <path class="cls-1" d="M60.13,38.35c-1.67.13-1.25-1.31-1.9-1.6-1.73-.44-1.82,1.74-3.42,1.83-0.74-2.18.92-3.94,0.89-5.81a3.44,3.44,0,0,1,3-1.06C59.42,33.82,61.53,35.73,60.13,38.35Z" transform="translate(-20.3 -6.42)"/>
  <path class="cls-1" d="M47.26,38a15.38,15.38,0,0,1-.11-5.42c1.82-.32,3.4-1.36,5.23,0-0.89,1.31-2.32.37-3,1.41,0.74,1.29,2.49-.23,3.21,1.1-0.34,1.31-1.88.53-2.64,1.39,1.09,1,2.35-.27,3.31.47-1.62,1.67-3.08,1.89-6.07.92Z" transform="translate(-20.3 -6.42)"/>
</svg>
