<?xml version="1.0" encoding="utf-8"?>
<!-- Generator: Adobe Illustrator 19.2.1, SVG Export Plug-In . SVG Version: 6.00 Build 0)  -->
<svg version="1.1" id="Layer_1" xmlns="http://www.w3.org/2000/svg" xmlns:xlink="http://www.w3.org/1999/xlink" x="-50px" y="-50px"
	width="100px" height="100px" viewBox="0 0 100 100" style="enable-background:new 0 0 100 100;" xml:space="preserve">
<title>logo</title>
<path d="M49.6,0.5C76.4,0,99.1,22.8,98.7,50.4c-0.4,26.2-22.5,48.9-50.2,48.4C22.4,98.2-0.2,76.2,0.3,48.5
	C0.8,22.2,22.8-0.1,49.6,0.5z M73.2,53.3c0-4.3,0-8.5,0-12.8c0-5.5,0-10.9,0-16.4c0-1.6-0.1-1.7-1.6-1.7c-3.1-0.1-6.1-0.2-9.2-0.2
	c-3.4,0-3.2-0.5-3.2,3.3c0,0.9,0.4,1.3,1.3,1.3c1.5,0,3,0,4.4,0c2.6,0,2.5-0.3,2.5,2.5c0,17.5,0,35.1,0,52.6c0,0.5,0,1,0,1.5
	c0,0.7,0.3,1.1,1.1,1.1c1.2,0,2.4,0,3.6,0c0.7,0,1.1-0.4,1.1-1.1c0-0.5,0-1,0-1.5C73.2,72.4,73.2,62.9,73.2,53.3z M36.9,64.5
	c0,2.5,0,4.9,0,7.4c0,3.7,0,7.4,0,11.2c0,1.4,0.1,1.5,1.5,1.5c0.7,0,1.3,0,2,0c3.1,0,2.8,0.3,2.8-2.8c0-9.1,0-18.2,0-27.4
	c0-1.1,0.3-1.9,1.5-2.2c3-0.6,6.1-1.2,9.2-1.8c0.9-0.2,1.5,0.2,1.4,1.2c-0.2,2.6,0.4,2.3,2.5,2.3c0.1,0,0.2,0,0.3,0
	c1.4,0,1.5-0.1,1.5-1.5c0-1.7,0-3.4,0-5.1c0-1.1-0.4-1.7-1.5-1.7c-2.2,0-4.5,0-6.7,0.3c-2.5,0.3-4.9,1-7.4,1.6
	c-0.9,0.2-1.4,0.1-1.3-0.9c0-0.5,0-1.1,0-1.6c0-1.7,0-1.7-1.6-1.4c-0.8,0.2-1.6,0.3-2.4,0.5c-1.8,0.4-1.8,0.4-1.8,2.2
	C36.9,52.3,36.9,58.4,36.9,64.5z"/>
</svg>
