<?xml version="1.0" encoding="utf-8"?>
<!-- Generator: Adobe Illustrator 19.2.1, SVG Export Plug-In . SVG Version: 6.00 Build 0)  -->
<svg version="1.1" id="Layer_1" xmlns="http://www.w3.org/2000/svg" xmlns:xlink="http://www.w3.org/1999/xlink" x="-50px" y="-50px"
	width="100px" height="100px" viewBox="0 0 100 100" style="enable-background:new 0 0 100 100;" xml:space="preserve">
<g id="Captions">
</g>
<g id="Your_Icon">
	<path d="M49,56.7H28.9c-1,0-1.7-0.8-1.7-1.7c0-1,0.8-1.7,1.7-1.7H49c1,0,1.7,0.8,1.7,1.7C50.8,55.9,50,56.7,49,56.7z"/>
	<path d="M71.9,5.2c-0.7-0.7-2-1.2-2.9-1.2H22.1c-0.9,0-1.7,0.8-1.7,1.7v3.7V11H15c-0.9,0-1.7,0.8-1.7,1.7v81.6
		c0,0.9,0.8,1.7,1.7,1.7h62.9c0.9,0,1.7-0.8,1.7-1.7V89h1.7H85c0.9,0,1.7-0.8,1.7-1.7V21.7c0-0.9-0.5-2.2-1.2-2.9L71.9,5.2z
		 M77.3,92c0,0.9-0.8,1.7-1.7,1.7H17.3c-0.9,0-1.7-0.8-1.7-1.7V15c0-0.9,0.8-1.7,1.7-1.7h3.1V15v72.3c0,0.9,0.8,1.7,1.7,1.7h53.5
		h1.7V92z M84.4,84.9c0,0.9-0.8,1.7-1.7,1.7h-1.4c-0.9,0-2.2,0-2.9,0c-0.6,0-1.9,0-2.9,0H24.4c-0.9,0-1.7-0.8-1.7-1.7V15
		c0-0.9,0-2.2,0-2.8c0-0.6,0-1.9,0-2.8V7.9c0-0.9,0.8-1.7,1.7-1.7h43.9v1.7v6.2c0,0.9,0,2.5,0,3.4V18c0,0.9,0,2.3,0,3
		s0.6,1.3,1.3,1.3c0.7,0,2.1,0,3,0h0.5c0.9,0,2.5,0,3.4,0h6.1h1.7L84.4,84.9L84.4,84.9z"/>
	<path d="M41.9,13.5h-13c-1,0-1.7-0.8-1.7-1.7c0-1,0.8-1.7,1.7-1.7h13c1,0,1.7,0.8,1.7,1.7C43.7,12.7,42.9,13.5,41.9,13.5z"/>
	<path d="M41.9,20.6h-13c-1,0-1.7-0.8-1.7-1.7c0-1,0.8-1.7,1.7-1.7h13c1,0,1.7,0.8,1.7,1.7C43.7,19.8,42.9,20.6,41.9,20.6z"/>
	<path d="M49,30.1H28.9c-1,0-1.7-0.8-1.7-1.7c0-1,0.8-1.7,1.7-1.7H49c1,0,1.7,0.8,1.7,1.7C50.8,29.3,50,30.1,49,30.1z"/>
	<path d="M49,36.7H28.9c-1,0-1.7-0.8-1.7-1.7c0-1,0.8-1.7,1.7-1.7H49c1,0,1.7,0.8,1.7,1.7C50.8,35.9,50,36.7,49,36.7z"/>
	<path d="M49,43.4H28.9c-1,0-1.7-0.8-1.7-1.7c0-1,0.8-1.7,1.7-1.7H49c1,0,1.7,0.8,1.7,1.7C50.8,42.6,50,43.4,49,43.4z"/>
	<path d="M49,50H28.9c-1,0-1.7-0.8-1.7-1.7c0-1,0.8-1.7,1.7-1.7H49c1,0,1.7,0.8,1.7,1.7C50.8,49.2,50,50,49,50z"/>
	<path d="M77.7,53.8H57.6c-1,0-1.7,0.8-1.7,1.7c0,1,0.8,1.7,1.7,1.7h20.1c1,0,1.7-0.8,1.7-1.7C79.4,54.6,78.6,53.8,77.7,53.8z"/>
	<path d="M77.7,80.4H57.6c-1,0-1.7,0.8-1.7,1.7s0.8,1.7,1.7,1.7h20.1c1,0,1.7-0.8,1.7-1.7S78.6,80.4,77.7,80.4z"/>
	<path d="M77.7,73.8H57.6c-1,0-1.7,0.8-1.7,1.7c0,1,0.8,1.7,1.7,1.7h20.1c1,0,1.7-0.8,1.7-1.7C79.4,74.5,78.6,73.8,77.7,73.8z"/>
	<path d="M77.7,67.1H57.6c-1,0-1.7,0.8-1.7,1.7c0,1,0.8,1.7,1.7,1.7h20.1c1,0,1.7-0.8,1.7-1.7C79.4,67.9,78.6,67.1,77.7,67.1z"/>
	<path d="M77.7,60.5H57.6c-1,0-1.7,0.8-1.7,1.7c0,1,0.8,1.7,1.7,1.7h20.1c1,0,1.7-0.8,1.7-1.7C79.4,61.2,78.6,60.5,77.7,60.5z"/>
	<path d="M50.8,82.2c0,0.9-0.8,1.7-1.7,1.7H28.9c-0.9,0-1.7-0.8-1.7-1.7V62c0-0.9,0.8-1.7,1.7-1.7h20.2c0.9,0,1.7,0.8,1.7,1.7V82.2z
		"/>
	<path d="M79.4,28.3c0-0.9-0.8-1.7-1.7-1.7H57.5c-0.9,0-1.7,0.8-1.7,1.7v20.2c0,0.9,0.8,1.7,1.7,1.7h20.2c0.9,0,1.7-0.8,1.7-1.7
		C79.4,48.5,79.4,28.3,79.4,28.3z"/>
</g>
</svg>
