<svg xmlns="http://www.w3.org/2000/svg" xmlns:xlink="http://www.w3.org/1999/xlink" version="1.1" x="0px" y="0px" width="100px" height="100px" viewBox="0 0 100 100" enable-background="new 0 0 100 100" xml:space="preserve">
<g id="Captions">
</g>
<g id="Your_Icon">
	<path d="M49.057,56.512H29.42c-0.941,0-1.706-0.765-1.706-1.708c0-0.942,0.765-1.706,1.706-1.706h19.637   c0.943,0,1.706,0.764,1.706,1.706C50.763,55.747,50,56.512,49.057,56.512z"/>
	<path d="M71.368,6.179C70.722,5.53,69.444,5,68.529,5H22.733c-0.915,0-1.663,0.749-1.663,1.665v3.61v1.663h-5.275   c-0.915,0-1.665,0.749-1.665,1.665v79.731c0,0.916,0.75,1.665,1.665,1.665h61.472c0.915,0,1.665-0.749,1.665-1.665v-5.273h1.663   h3.61c0.915,0,1.665-0.749,1.665-1.665V22.388c0-0.915-0.529-2.193-1.175-2.842L71.368,6.179z M76.647,91.054   c0,0.916-0.748,1.664-1.663,1.664H18.077c-0.915,0-1.664-0.748-1.664-1.664V15.758c0-0.915,0.749-1.664,1.664-1.664h2.993v1.664   v70.639c0,0.916,0.748,1.665,1.663,1.665h52.251h1.663V91.054z M83.588,84.115c0,0.914-0.75,1.664-1.665,1.664h-1.328   c-0.915,0-2.177,0-2.805,0c-0.629,0-1.891,0-2.806,0H25.016c-0.914,0-1.663-0.75-1.663-1.664V15.758c0-0.915,0-2.149,0-2.741   c0-0.593,0-1.826,0-2.741V8.819c0-0.915,0.749-1.664,1.663-1.664h42.848v1.664v6.079c0,0.914,0,2.413,0,3.328v0.503   c0,0.915,0,2.252,0,2.971s0.581,1.307,1.291,1.307c0.712,0,2.042,0,2.958,0h0.513c0.915,0,2.412,0,3.328,0h5.97h1.665V84.115z"/>
	<path d="M42.097,14.346H29.42c-0.941,0-1.706-0.765-1.706-1.708c0-0.941,0.765-1.705,1.706-1.705h12.677   c0.942,0,1.706,0.764,1.706,1.705C43.803,13.581,43.039,14.346,42.097,14.346z"/>
	<path d="M42.097,21.273H29.42c-0.941,0-1.706-0.764-1.706-1.707c0-0.942,0.765-1.706,1.706-1.706h12.677   c0.942,0,1.706,0.764,1.706,1.706C43.803,20.51,43.039,21.273,42.097,21.273z"/>
	<path d="M49.057,30.516H29.42c-0.941,0-1.706-0.765-1.706-1.707s0.765-1.706,1.706-1.706h19.637c0.943,0,1.706,0.764,1.706,1.706   S50,30.516,49.057,30.516z"/>
	<path d="M49.057,37.015H29.42c-0.941,0-1.706-0.765-1.706-1.708c0-0.942,0.765-1.705,1.706-1.705h19.637   c0.943,0,1.706,0.763,1.706,1.705C50.763,36.25,50,37.015,49.057,37.015z"/>
	<path d="M49.057,43.514H29.42c-0.941,0-1.706-0.765-1.706-1.707c0-0.943,0.765-1.706,1.706-1.706h19.637   c0.943,0,1.706,0.763,1.706,1.706C50.763,42.749,50,43.514,49.057,43.514z"/>
	<path d="M49.057,50.012H29.42c-0.941,0-1.706-0.764-1.706-1.706c0-0.943,0.765-1.706,1.706-1.706h19.637   c0.943,0,1.706,0.763,1.706,1.706C50.763,49.248,50,50.012,49.057,50.012z"/>
	<path d="M77.023,53.712H57.386c-0.941,0-1.705,0.764-1.705,1.707s0.764,1.707,1.705,1.707h19.638c0.942,0,1.705-0.764,1.705-1.707   S77.966,53.712,77.023,53.712z"/>
	<path d="M77.023,79.708H57.386c-0.941,0-1.705,0.765-1.705,1.707s0.764,1.707,1.705,1.707h19.638c0.942,0,1.705-0.765,1.705-1.707   S77.966,79.708,77.023,79.708z"/>
	<path d="M77.023,73.209H57.386c-0.941,0-1.705,0.765-1.705,1.708c0,0.941,0.764,1.705,1.705,1.705h19.638   c0.942,0,1.705-0.764,1.705-1.705C78.729,73.974,77.966,73.209,77.023,73.209z"/>
	<path d="M77.023,66.71H57.386c-0.941,0-1.705,0.765-1.705,1.708c0,0.942,0.764,1.705,1.705,1.705h19.638   c0.942,0,1.705-0.763,1.705-1.705C78.729,67.475,77.966,66.71,77.023,66.71z"/>
	<path d="M77.023,60.212H57.386c-0.941,0-1.705,0.764-1.705,1.706c0,0.943,0.764,1.706,1.705,1.706h19.638   c0.942,0,1.705-0.763,1.705-1.706C78.729,60.976,77.966,60.212,77.023,60.212z"/>
	<path d="M50.763,81.457c0,0.915-0.748,1.665-1.664,1.665H29.378c-0.914,0-1.664-0.75-1.664-1.665V61.736   c0-0.915,0.75-1.664,1.664-1.664h19.721c0.916,0,1.664,0.749,1.664,1.664V81.457z"/>
	<path d="M78.729,28.767c0-0.915-0.749-1.664-1.664-1.664H57.344c-0.915,0-1.665,0.749-1.665,1.664v19.721   c0,0.915,0.75,1.663,1.665,1.663h19.721c0.915,0,1.664-0.748,1.664-1.663V28.767z"/>
</g>
</svg>