<?xml version="1.0" encoding="utf-8"?>
<!-- Generator: Adobe Illustrator 19.2.1, SVG Export Plug-In . SVG Version: 6.00 Build 0)  -->
<svg version="1.1" id="Layer_1" xmlns="http://www.w3.org/2000/svg" xmlns:xlink="http://www.w3.org/1999/xlink" x="-50px" y="-50px"
	width="100px" height="100px" viewBox="0 0 100 100" style="enable-background:new 0 0 100 100;" xml:space="preserve">
<style type="text/css">
	.st0{fill:none;stroke:#000000;stroke-miterlimit:10;}
</style>
<g>
	<path d="M48.3,12.9V0c-12.7,0.3-23.8,4.8-33,13.7l9.2,9.2C30.7,16.9,39.1,13.2,48.3,12.9z"/>
	<path d="M12.9,48.3c0.3-9.2,4-17.6,9.9-23.8l-9.2-9.2C4.8,24.4,0.3,35.5,0,48.3H12.9z"/>
	<path d="M22.8,74.4c-5.9-6.3-9.6-14.6-9.9-23.8H0c0.3,12.7,4.8,23.8,13.7,33L22.8,74.4z"/>
	<path d="M48.3,85.8c-9.2-0.3-17.6-4-23.8-9.9l-9.2,9.2c9.2,8.8,20.3,13.4,33,13.7L48.3,85.8L48.3,85.8z"/>
	<path d="M50.5,85.8v12.9c12.7-0.3,23.8-4.9,33-13.7L74.4,76C68.1,81.9,59.7,85.6,50.5,85.8z"/>
	<path d="M85.8,50.5c-0.3,9.2-4,17.6-9.9,23.8l9.2,9.2c8.8-9.2,13.4-20.3,13.7-33H85.8z"/>
	<path d="M85.1,15.3L76,24.4c5.9,6.3,9.6,14.6,9.9,23.8h12.9C98.5,35.5,93.9,24.4,85.1,15.3z"/>
	<path d="M50.5,12.9c9.2,0.3,17.6,4,23.8,9.9l0,0l9.2-9.2C74.3,4.8,63.3,0.3,50.5,0V12.9z"/>
</g>
<path class="st0" d="M63.6,14.1c0,14.5-22.6,26.3-50.5,26.3"/>
<path class="st0" d="M34.5,16.6c0,25.7,22.4,46.5,50,46.5"/>
<path class="st0" d="M34.3,16.1c0,13.4-9,24.3-20.2,24.3"/>
<path class="st0" d="M62.1,83.1c0-10.9,9.4-19.7,21-19.7"/>
<path class="st0" d="M34.3,85.4c0-28.3,21.6-51.3,48.3-51.3"/>
<path class="st0" d="M14.8,62.9c0-15.8,30.6-28.5,68.5-28.5"/>
<path class="st0" d="M15.1,61.4c26.1,0,47.2,10.5,47.2,23.5"/>
<path class="st0" d="M83.6,63.4c-10.9,0-19.7-21.8-19.7-48.8"/>
<path class="st0" d="M83.8,34.6c-12,0-21.7,21.6-21.7,48.3"/>
</svg>
