<svg width="100" height="54" x="-50px" y="-27px" xmlns="http://www.w3.org/2000/svg"><defs><linearGradient x1="19.908%" y1="99.581%" x2="19.908%" y2="53.804%" id="a"><stop stop-color="#FFF" stop-opacity=".35" offset=".5%"/><stop stop-color="#FFF" stop-opacity="0" offset="100%"/></linearGradient></defs><g fill-rule="nonzero" fill="none"><path class="fill" d="M29.848 23.952c0 11.818-7.878 15.757-15.151 15.757S0 35.164 0 23.952v-9.394a5.432 5.432 0 0 1 5.455-5.455h1.818v15s-.606 8.788 7.424 8.788c8.485 0 8.03-8.788 8.03-8.788v-9.697a5.432 5.432 0 0 1 5.455-5.454h1.515l.151 15zm13.94-14.849h-1.212c-3.03 0-6.06 1.818-6.06 6.06V35.77c0 2.727.302 5.151-.607 6.97-1.06 2.575-2.879 4.545-5.151 5.605l4.394 5.607s8.333-3.788 8.333-13.03l.303-31.819zm50.606 20.758c-.758-1.667-.606-3.637-.606-5.91V14.71h5.606V8.952h-5.606v-1.97c0-7.576-5.91-6.97-7.121-6.97v27.879c0 9.545 8.485 13.333 8.485 13.333l4.393-5.757c-2.12-1.06-3.939-3.03-5.151-5.606zm-13.182-4.697l-6.364.151c-.757 4.394-4.696 7.879-9.393 7.879-2.425 0-4.697-.91-6.516-2.576l15.606-9.545 5.607-3.485c-2.425-5.758-8.03-10-14.697-10-8.788 0-15.91 7.121-15.91 15.909 0 1.667.303 3.333.758 4.848.606 2.122 1.818 4.091 3.182 5.607 2.879 3.333 7.273 5.454 12.121 5.454 8.03.152 14.849-6.212 15.606-14.242zm-24.848-1.97c0-5.303 3.788-9.091 9.09-9.091 1.97 0 3.788.606 5.304 1.667l-14.243 8.788c-.151-.455-.151-.91-.151-1.364z" fill="#000"/><path d="M7.576 34.406c5.909 2.121 10.606-.909 12.272-3.182-.151.152-.303.303-.454.303h-.152c-.151.152-.303.152-.454.303 0 0-.152 0-.152.152-.151 0-.303.151-.303.151s-.151 0-.151.152c-.152 0-.303.151-.455.151-.151 0-.151 0-.303.152-.151 0-.303.151-.454.151h-.303c-.152 0-.303 0-.455.152h-1.818c-8.182 0-7.424-8.788-7.424-8.788V8.952H5.455c-.303 0-.758.151-1.061.151h-.152c-.151 0-.303 0-.303.152C1.667 10.012 0 11.982 0 14.558v9.394c.152 2.878 1.06 8.03 7.576 10.454z" fill="url(#a)"/></g></svg>